<svg width="203" height="45" viewBox="0 0 203 45" fill="none" xmlns="http://www.w3.org/2000/svg">
<g clip-path="url(#clip0_65_63)">
<rect x="12" y="3.17847" width="5" height="28" rx="2.5" transform="rotate(-34.6824 12 3.17847)" fill="black"/>
<path d="M9.42257 13.2343C8.63691 12.0989 8.92041 10.5416 10.0558 9.7559C11.1912 8.97024 12.7485 9.25374 13.5342 10.3891L26.6218 29.3025C27.4074 30.4378 27.1239 31.9952 25.9886 32.7808C24.8532 33.5665 23.2959 33.283 22.5102 32.1476L9.42257 13.2343Z" fill="black"/>
</g>
<path d="M51.0278 33.9583C49.7083 33.9583 48.3542 33.7383 46.9653 33.2985C45.5764 32.8356 44.4653 32.1874 43.6319 31.3541L45.0208 26.0763C45.6921 27.0485 46.5949 27.8819 47.7292 28.5763C48.8866 29.2476 50.0787 29.5833 51.3056 29.5833C52.2315 29.5833 52.9028 29.3981 53.3194 29.0277C53.7593 28.6342 53.9792 28.1596 53.9792 27.6041C53.9792 26.9791 53.7593 26.5277 53.3194 26.2499C52.8796 25.949 52.4398 25.7175 52 25.5555L49.1181 24.4791C48.5162 24.2245 47.8102 23.8888 47 23.4721C46.1898 23.0323 45.4838 22.4189 44.8819 21.6319C44.3032 20.8217 44.0139 19.7684 44.0139 18.4721C44.0139 17.2916 44.3032 16.2036 44.8819 15.2083C45.4606 14.2129 46.294 13.4143 47.3819 12.8124C48.4931 12.1874 49.8241 11.8749 51.375 11.8749C52.7639 11.8749 54.0833 12.118 55.3333 12.6041C56.6065 13.067 57.5671 13.6458 58.2153 14.3402L56.9306 19.4791C56.1898 18.4606 55.2986 17.6735 54.2569 17.118C53.2153 16.5393 52.2083 16.2499 51.2361 16.2499C50.4259 16.2499 49.8241 16.4351 49.4306 16.8055C49.037 17.1527 48.8403 17.5694 48.8403 18.0555C48.8403 18.4258 48.9792 18.7731 49.2569 19.0971C49.5347 19.4212 49.9861 19.699 50.6111 19.9305L53.3194 20.9721C54.037 21.2268 54.8241 21.5856 55.6806 22.0485C56.537 22.4883 57.2662 23.1133 57.8681 23.9235C58.4931 24.7337 58.8056 25.8448 58.8056 27.2569C58.8056 29.2476 58.0764 30.868 56.6181 32.118C55.1829 33.3448 53.3194 33.9583 51.0278 33.9583ZM62.8171 33.3333V12.4999H68.2684V33.3333H62.8171ZM65.5601 9.30547C64.7036 9.30547 63.9745 9.01612 63.3726 8.43742C62.7939 7.83557 62.5046 7.1064 62.5046 6.24992C62.5046 5.37029 62.7939 4.64112 63.3726 4.06242C63.9745 3.48371 64.7036 3.19436 65.5601 3.19436C66.4397 3.19436 67.1689 3.48371 67.7476 4.06242C68.3263 4.64112 68.6157 5.37029 68.6157 6.24992C68.6157 7.1064 68.3263 7.83557 67.7476 8.43742C67.1689 9.01612 66.4397 9.30547 65.5601 9.30547ZM73.4269 33.3333V12.4999H78.3227V15.0694C79.0866 14.0277 80.0241 13.2407 81.1352 12.7083C82.2463 12.1527 83.45 11.8749 84.7463 11.8749C86.2278 11.8749 87.6051 12.2337 88.8783 12.9513C90.1746 13.6689 91.2162 14.7106 92.0033 16.0763C92.7903 17.4189 93.1838 19.0624 93.1838 21.0069V33.3333H87.7324V21.736C87.7324 20.4397 87.3505 19.2939 86.5866 18.2985C85.8227 17.3032 84.7347 16.8055 83.3227 16.8055C82.1653 16.8055 81.1352 17.2106 80.2324 18.0208C79.3296 18.8078 78.8783 20.0115 78.8783 21.6319V33.3333H73.4269ZM106.813 44.3749C105.193 44.3749 103.665 44.1319 102.23 43.6458C100.818 43.1828 99.5796 42.5462 98.5148 41.736L99.8689 36.2152C100.61 37.2106 101.57 38.0208 102.751 38.6458C103.955 39.2939 105.309 39.618 106.813 39.618C108.989 39.618 110.702 38.9814 111.952 37.7083C113.202 36.4583 113.827 34.8379 113.827 32.8471V31.111C112.994 31.9444 112.01 32.6041 110.876 33.0902C109.742 33.5763 108.492 33.8194 107.126 33.8194C105.228 33.8194 103.492 33.3333 101.918 32.361C100.343 31.3657 99.0819 30.0462 98.1328 28.4027C97.2069 26.736 96.7439 24.9073 96.7439 22.9166C96.7439 20.9258 97.2069 19.1087 98.1328 17.4652C99.0819 15.7985 100.343 14.4791 101.918 13.5069C103.492 12.5115 105.228 12.0138 107.126 12.0138C108.492 12.0138 109.753 12.2569 110.911 12.743C112.068 13.2291 113.052 13.912 113.862 14.7916V12.4999H118.619V33.5416C118.619 35.8101 118.075 37.7545 116.987 39.3749C115.899 40.9953 114.452 42.2337 112.647 43.0902C110.841 43.9467 108.897 44.3749 106.813 44.3749ZM107.786 28.993C108.897 28.993 109.892 28.7152 110.772 28.1596C111.674 27.6041 112.392 26.8749 112.924 25.9721C113.457 25.0462 113.723 24.0277 113.723 22.9166C113.723 21.8055 113.457 20.7985 112.924 19.8958C112.392 18.9698 111.674 18.2291 110.772 17.6735C109.892 17.118 108.908 16.8402 107.82 16.8402C106.709 16.8402 105.702 17.118 104.799 17.6735C103.92 18.2291 103.214 18.9698 102.681 19.8958C102.149 20.7985 101.883 21.8055 101.883 22.9166C101.883 24.0277 102.149 25.0462 102.681 25.9721C103.214 26.8749 103.92 27.6041 104.799 28.1596C105.702 28.7152 106.698 28.993 107.786 28.993ZM131.789 33.9583C130.331 33.9583 128.954 33.5995 127.658 32.8819C126.361 32.1643 125.32 31.1342 124.533 29.7916C123.746 28.4258 123.352 26.7708 123.352 24.8263V12.4999H128.803V24.0971C128.803 25.3934 129.185 26.5393 129.949 27.5346C130.736 28.53 131.824 29.0277 133.213 29.0277C134.371 29.0277 135.401 28.611 136.303 27.7777C137.206 26.9444 137.658 25.7522 137.658 24.2013V12.4999H143.109V33.3333H138.144V30.8333C137.403 31.8518 136.477 32.6272 135.366 33.1596C134.255 33.692 133.063 33.9583 131.789 33.9583ZM148.266 33.3333V-8.23736e-05H153.718V33.3333H148.266ZM168.112 33.8194C166.214 33.8194 164.478 33.3333 162.904 32.361C161.33 31.3657 160.068 30.0462 159.119 28.4027C158.193 26.736 157.73 24.9073 157.73 22.9166C157.73 20.9258 158.193 19.1087 159.119 17.4652C160.068 15.7985 161.33 14.4791 162.904 13.5069C164.478 12.5115 166.214 12.0138 168.112 12.0138C169.478 12.0138 170.74 12.2569 171.897 12.743C173.054 13.2291 174.038 13.912 174.848 14.7916V12.4999H179.605V33.3333H174.848V31.0416C174.038 31.8981 173.054 32.5809 171.897 33.0902C170.74 33.5763 169.478 33.8194 168.112 33.8194ZM168.772 28.993C169.883 28.993 170.878 28.7152 171.758 28.1596C172.661 27.6041 173.378 26.8749 173.911 25.9721C174.443 25.0462 174.709 24.0277 174.709 22.9166C174.709 21.8055 174.443 20.7985 173.911 19.8958C173.378 18.9698 172.661 18.2291 171.758 17.6735C170.878 17.118 169.895 16.8402 168.807 16.8402C167.696 16.8402 166.689 17.118 165.786 17.6735C164.906 18.2291 164.2 18.9698 163.668 19.8958C163.135 20.7985 162.869 21.8055 162.869 22.9166C162.869 24.0277 163.135 25.0462 163.668 25.9721C164.2 26.8749 164.906 27.6041 165.786 28.1596C166.689 28.7152 167.684 28.993 168.772 28.993ZM184.755 33.3333V12.4999H189.651V16.1458C190.392 14.942 191.317 14.0045 192.429 13.3333C193.563 12.6388 194.905 12.2916 196.456 12.2916L197.672 17.2221C197.232 17.0833 196.734 17.0138 196.179 17.0138C194.373 17.0138 192.926 17.5925 191.838 18.7499C190.75 19.9073 190.206 21.5508 190.206 23.6805V33.3333H184.755Z" fill="black"/>
<defs>
<clipPath id="clip0_65_63">
<rect width="42" height="33" fill="black" transform="translate(0 0.333252)"/>
</clipPath>
</defs>
</svg>
